<?xml version="1.0" encoding="UTF-8"?>
<svg xmlns="http://www.w3.org/2000/svg" width="156" height="156" viewBox="0 0 156 156" fill="none">
<path fill-rule="evenodd" clip-rule="evenodd" d="M5.42583 75.7863H75.5V5.71218C37.3825 7.00176 6.71542 37.6689 5.42583 75.7863ZM80.5 75.7863V0.669952H78C35.1337 0.669952 0.383606 35.42 0.383606 78.2863V80.7863H75.5V155.903H78C120.866 155.903 155.616 121.153 155.616 78.2863V75.7863H80.5ZM80.5 80.7863V150.861C118.617 149.571 149.285 118.904 150.574 80.7863H80.5Z" fill="#353436"/>
<path fill-rule="evenodd" clip-rule="evenodd" d="M78 49.6103C62.1627 49.6103 49.324 62.449 49.324 78.2863C49.324 94.1236 62.1627 106.962 78 106.962C93.8373 106.962 106.676 94.1236 106.676 78.2863C106.676 62.449 93.8373 49.6103 78 49.6103ZM44.324 78.2863C44.324 59.6876 59.4013 44.6103 78 44.6103C96.5987 44.6103 111.676 59.6876 111.676 78.2863C111.676 96.8851 96.5987 111.962 78 111.962C59.4013 111.962 44.324 96.8851 44.324 78.2863Z" fill="#353436"/>
</svg>